<svg width="52" height="55" viewBox="0 0 52 55" fill="none" xmlns="http://www.w3.org/2000/svg">
<g clip-path="url(#clip0_13_1219)">
<path d="M40.3488 17.4925C40.0025 17.1389 39.5165 16.9781 39.041 17.0603C38.5645 17.1422 38.1531 17.4565 37.9321 17.9074C37.172 19.459 36.2066 20.8848 35.0707 22.1452C35.1839 21.2347 35.2409 20.3188 35.2409 19.4004C35.2409 17.6382 35.0161 15.8248 34.5726 14.0098C33.1144 8.04857 29.2906 3.00719 24.0819 0.178464C23.6284 -0.0677297 23.0881 -0.0590857 22.642 0.201515C22.1958 0.462223 21.9036 0.940204 21.8636 1.47485C21.4575 6.89219 18.8019 11.8208 14.5735 15.0001C14.5176 15.0424 14.462 15.0853 14.4065 15.128C14.2914 15.2165 14.1829 15.3001 14.0816 15.3704C14.0657 15.3815 14.05 15.3928 14.0345 15.4044C11.3752 17.405 9.18098 20.0719 7.68872 23.1174C6.17239 26.2153 5.40356 29.5396 5.40356 32.9977C5.40356 34.7594 5.62832 36.5728 6.07164 38.3881C8.41113 47.9559 16.6056 54.6383 25.9991 54.6383C37.3549 54.6383 46.5935 44.9303 46.5935 32.9977C46.5935 27.1134 44.3757 21.6069 40.3488 17.4925Z" fill="#DDACF5"/>
<ellipse cx="25.2132" cy="33.1143" rx="6.30303" ry="6.62287" fill="#FCFBFF"/>
</g>
<defs>
<clipPath id="clip0_13_1219">
<rect width="52" height="54.6387" fill="white"/>
</clipPath>
</defs>
</svg>
