<svg width="62" height="64" viewBox="0 0 62 64" fill="none" xmlns="http://www.w3.org/2000/svg">
<ellipse cx="31" cy="32" rx="31" ry="32" fill="#9854CB"/>
<path fill-rule="evenodd" clip-rule="evenodd" d="M30.1378 32.8622V20.6002C30.1378 20.1165 29.7453 19.7213 29.2626 19.7535C28.8212 19.783 28.3825 19.8347 27.9482 19.9081C26.129 20.2156 24.3865 20.9043 22.8388 21.9385C20.6783 23.3821 18.9944 25.4339 18.0001 27.8346C17.0057 30.2352 16.7455 32.8768 17.2524 35.4252C17.7594 37.9737 19.0106 40.3147 20.848 42.152C22.6853 43.9894 25.0263 45.2406 27.5748 45.7476C30.1232 46.2545 32.7648 45.9943 35.1654 44.9999C37.5661 44.0056 39.6179 42.3217 41.0615 40.1612C42.0957 38.6135 42.7844 36.871 43.0919 35.0518C43.1653 34.6175 43.217 34.1788 43.2465 33.7374C43.2787 33.2547 42.8835 32.8622 42.3998 32.8622H30.1378ZM40.8648 35.0518H28.824C28.3403 35.0518 27.9482 34.6597 27.9482 34.176V22.1352C26.5643 22.4177 25.2412 22.9667 24.0553 23.7591C22.2549 24.9621 20.8517 26.672 20.023 28.6725C19.1944 30.673 18.9776 32.8743 19.4 34.9981C19.8224 37.1218 20.8652 39.0726 22.3963 40.6037C23.9274 42.1348 25.8782 43.1776 28.0019 43.6C30.1257 44.0224 32.327 43.8056 34.3275 42.977C36.328 42.1483 38.0379 40.7451 39.2409 38.9447C40.0333 37.7588 40.5823 36.4357 40.8648 35.0518Z" fill="white"/>
<path fill-rule="evenodd" clip-rule="evenodd" d="M36.0792 20.9957C35.432 20.7276 34.7622 20.5229 34.0792 20.3835V28.9208L42.6165 28.9208C42.4771 28.2378 42.2724 27.568 42.0043 26.9208C41.4541 25.5925 40.6477 24.3856 39.6311 23.3689C38.6144 22.3523 37.4075 21.5459 36.0792 20.9957ZM44.8436 28.9208C44.6794 27.9495 44.4061 26.9973 44.0273 26.0828C43.367 24.4889 42.3993 23.0406 41.1794 21.8206C39.9594 20.6007 38.5111 19.633 36.9172 18.9727C36.0027 18.5939 35.0505 18.3206 34.0792 18.1564C33.6443 18.0829 33.2056 18.0313 32.7647 18.0018C32.2821 17.9696 31.8895 18.3648 31.8895 18.8485V30.2346C31.8895 30.7183 32.2817 31.1105 32.7654 31.1105L44.1515 31.1105C44.6352 31.1105 45.0304 30.7179 44.9982 30.2353C44.9687 29.7944 44.9171 29.3557 44.8436 28.9208Z" fill="white"/>
<path d="M24.0553 23.7591C25.2412 22.9667 26.5643 22.4177 27.9482 22.1352V34.176C27.9482 34.6597 28.3403 35.0518 28.824 35.0518H40.8648C40.5823 36.4357 40.0333 37.7588 39.2409 38.9447C38.0379 40.7451 36.328 42.1483 34.3275 42.977C32.327 43.8056 30.1257 44.0224 28.0019 43.6C25.8782 43.1776 23.9274 42.1348 22.3963 40.6037C20.8652 39.0726 19.8224 37.1218 19.4 34.9981C18.9776 32.8743 19.1944 30.673 20.023 28.6725C20.8517 26.672 22.2549 24.9621 24.0553 23.7591Z" fill="white"/>
<path d="M34.0792 20.3835C34.7622 20.5229 35.432 20.7276 36.0792 20.9957C37.4075 21.5459 38.6144 22.3523 39.6311 23.3689C40.6477 24.3856 41.4541 25.5925 42.0043 26.9208C42.2724 27.568 42.4771 28.2378 42.6165 28.9208L34.0792 28.9208V20.3835Z" fill="white"/>
</svg>
